<svg width="18" height="18" viewBox="0 0 18 18" fill="#627D98" xmlns="http://www.w3.org/2000/svg">
<path fill-rule="evenodd" clip-rule="evenodd" d="M1.43624 10.6667C1.89648 10.6667 2.26957 11.0398 2.26957 11.5V14.8334C2.26957 15.0544 2.35737 15.2663 2.51365 15.4226C2.66993 15.5789 2.88189 15.6667 3.10291 15.6667H14.7696C14.9906 15.6667 15.2025 15.5789 15.3588 15.4226C15.5151 15.2663 15.6029 15.0544 15.6029 14.8334V11.5C15.6029 11.0398 15.976 10.6667 16.4362 10.6667C16.8965 10.6667 17.2696 11.0398 17.2696 11.5V14.8334C17.2696 15.4964 17.0062 16.1323 16.5373 16.6011C16.0685 17.07 15.4326 17.3334 14.7696 17.3334H3.10291C2.43986 17.3334 1.80398 17.07 1.33514 16.6011C0.866297 16.1323 0.602905 15.4964 0.602905 14.8334V11.5C0.602905 11.0398 0.976001 10.6667 1.43624 10.6667Z" />
<path fill-rule="evenodd" clip-rule="evenodd" d="M4.18036 6.74408C4.50579 6.41864 5.03343 6.41864 5.35887 6.74408L8.93628 10.3215L12.5137 6.74408C12.8391 6.41864 13.3668 6.41864 13.6922 6.74408C14.0176 7.06951 14.0176 7.59715 13.6922 7.92259L9.52553 12.0893C9.2001 12.4147 8.67246 12.4147 8.34702 12.0893L4.18036 7.92259C3.85492 7.59715 3.85492 7.06951 4.18036 6.74408Z" />
<path fill-rule="evenodd" clip-rule="evenodd" d="M8.93624 0.666687C9.39648 0.666687 9.76957 1.03978 9.76957 1.50002V11.5C9.76957 11.9603 9.39648 12.3334 8.93624 12.3334C8.476 12.3334 8.10291 11.9603 8.10291 11.5V1.50002C8.10291 1.03978 8.476 0.666687 8.93624 0.666687Z" />
</svg>
